<mxfile host="app.diagrams.net" agent="Mozilla/5.0 (Windows NT 10.0; Win64; x64) AppleWebKit/537.36 (KHTML, like Gecko) Chrome/136.0.0.0 Safari/537.36" version="27.0.5">
  <diagram name="Page-1" id="-WDK7loDnA4iI_vvw38S">
    <mxGraphModel dx="1675" dy="1061" grid="1" gridSize="10" guides="1" tooltips="1" connect="1" arrows="1" fold="1" page="1" pageScale="1" pageWidth="827" pageHeight="1169" math="0" shadow="0">
      <root>
        <mxCell id="0" />
        <mxCell id="1" parent="0" />
        <mxCell id="nhylXvpkzeiEjoqtLDVl-33" value="Purchase Shoes" style="ellipse;whiteSpace=wrap;html=1;fillColor=#FFF2CC;" parent="1" vertex="1">
          <mxGeometry x="393" y="38" width="90" height="60" as="geometry" />
        </mxCell>
        <mxCell id="nhylXvpkzeiEjoqtLDVl-34" value="Validate Positive Quantity" style="ellipse;whiteSpace=wrap;html=1;" parent="1" vertex="1">
          <mxGeometry x="643" y="8" width="90" height="60" as="geometry" />
        </mxCell>
        <mxCell id="nhylXvpkzeiEjoqtLDVl-35" value="" style="endArrow=classic;html=1;rounded=0;entryX=0;entryY=0.5;entryDx=0;entryDy=0;" parent="1" target="nhylXvpkzeiEjoqtLDVl-34" edge="1">
          <mxGeometry relative="1" as="geometry">
            <mxPoint x="473" y="48" as="sourcePoint" />
            <mxPoint x="603" y="48" as="targetPoint" />
          </mxGeometry>
        </mxCell>
        <mxCell id="nhylXvpkzeiEjoqtLDVl-36" value="&amp;lt;&amp;lt;extend&amp;gt;&amp;gt;" style="edgeLabel;resizable=0;html=1;;align=center;verticalAlign=middle;" parent="nhylXvpkzeiEjoqtLDVl-35" connectable="0" vertex="1">
          <mxGeometry relative="1" as="geometry" />
        </mxCell>
        <mxCell id="nhylXvpkzeiEjoqtLDVl-37" value="Select Shoe" style="ellipse;whiteSpace=wrap;html=1;" parent="1" vertex="1">
          <mxGeometry x="643" y="78" width="90" height="60" as="geometry" />
        </mxCell>
        <mxCell id="nhylXvpkzeiEjoqtLDVl-38" value="" style="endArrow=classic;html=1;rounded=0;exitX=1;exitY=1;exitDx=0;exitDy=0;entryX=0;entryY=0.5;entryDx=0;entryDy=0;" parent="1" target="nhylXvpkzeiEjoqtLDVl-37" edge="1">
          <mxGeometry relative="1" as="geometry">
            <mxPoint x="482.99980515339456" y="68.00320343559633" as="sourcePoint" />
            <mxPoint x="589.1600000000001" y="147" as="targetPoint" />
          </mxGeometry>
        </mxCell>
        <mxCell id="nhylXvpkzeiEjoqtLDVl-39" value="&amp;lt;&amp;lt;include&amp;gt;&amp;gt;" style="edgeLabel;resizable=0;html=1;;align=center;verticalAlign=middle;" parent="nhylXvpkzeiEjoqtLDVl-38" connectable="0" vertex="1">
          <mxGeometry relative="1" as="geometry">
            <mxPoint x="1" as="offset" />
          </mxGeometry>
        </mxCell>
        <mxCell id="nhylXvpkzeiEjoqtLDVl-40" value="View shoe stock" style="ellipse;whiteSpace=wrap;html=1;fillColor=#FFF2CC;" parent="1" vertex="1">
          <mxGeometry x="393" y="413" width="90" height="60" as="geometry" />
        </mxCell>
        <mxCell id="nhylXvpkzeiEjoqtLDVl-41" value="" style="endArrow=classic;html=1;rounded=0;" parent="1" edge="1">
          <mxGeometry relative="1" as="geometry">
            <mxPoint x="483" y="443" as="sourcePoint" />
            <mxPoint x="658" y="443" as="targetPoint" />
          </mxGeometry>
        </mxCell>
        <mxCell id="nhylXvpkzeiEjoqtLDVl-42" value="&amp;lt;&amp;lt;extend&amp;gt;&amp;gt;" style="edgeLabel;resizable=0;html=1;;align=center;verticalAlign=middle;" parent="nhylXvpkzeiEjoqtLDVl-41" connectable="0" vertex="1">
          <mxGeometry relative="1" as="geometry" />
        </mxCell>
        <mxCell id="nhylXvpkzeiEjoqtLDVl-43" value="Return to Menu" style="ellipse;whiteSpace=wrap;html=1;" parent="1" vertex="1">
          <mxGeometry x="658" y="413" width="90" height="60" as="geometry" />
        </mxCell>
        <mxCell id="nhylXvpkzeiEjoqtLDVl-44" value="Sell Shoes" style="ellipse;whiteSpace=wrap;html=1;fillColor=#FFF2CC;" parent="1" vertex="1">
          <mxGeometry x="393" y="216" width="90" height="60" as="geometry" />
        </mxCell>
        <mxCell id="nhylXvpkzeiEjoqtLDVl-45" value="Select Shoe" style="ellipse;whiteSpace=wrap;html=1;" parent="1" vertex="1">
          <mxGeometry x="658" y="186" width="90" height="60" as="geometry" />
        </mxCell>
        <mxCell id="nhylXvpkzeiEjoqtLDVl-46" value="" style="endArrow=classic;html=1;rounded=0;exitX=0.989;exitY=0.36;exitDx=0;exitDy=0;entryX=0;entryY=0;entryDx=0;entryDy=0;exitPerimeter=0;" parent="1" source="nhylXvpkzeiEjoqtLDVl-44" target="nhylXvpkzeiEjoqtLDVl-45" edge="1">
          <mxGeometry relative="1" as="geometry">
            <mxPoint x="437.99980515339456" y="256.00320343559633" as="sourcePoint" />
            <mxPoint x="598" y="296" as="targetPoint" />
          </mxGeometry>
        </mxCell>
        <mxCell id="nhylXvpkzeiEjoqtLDVl-47" value="&amp;lt;&amp;lt;include&amp;gt;&amp;gt;" style="edgeLabel;resizable=0;html=1;;align=center;verticalAlign=middle;" parent="nhylXvpkzeiEjoqtLDVl-46" connectable="0" vertex="1">
          <mxGeometry relative="1" as="geometry">
            <mxPoint x="1" as="offset" />
          </mxGeometry>
        </mxCell>
        <mxCell id="nhylXvpkzeiEjoqtLDVl-48" value="Show Error for Insufficient Stock" style="ellipse;whiteSpace=wrap;html=1;" parent="1" vertex="1">
          <mxGeometry x="658" y="256" width="90" height="60" as="geometry" />
        </mxCell>
        <mxCell id="nhylXvpkzeiEjoqtLDVl-49" value="" style="endArrow=classic;html=1;rounded=0;entryX=0.071;entryY=0.347;entryDx=0;entryDy=0;entryPerimeter=0;exitX=1;exitY=0.5;exitDx=0;exitDy=0;" parent="1" source="nhylXvpkzeiEjoqtLDVl-44" target="nhylXvpkzeiEjoqtLDVl-48" edge="1">
          <mxGeometry relative="1" as="geometry">
            <mxPoint x="468" y="276" as="sourcePoint" />
            <mxPoint x="643" y="276" as="targetPoint" />
          </mxGeometry>
        </mxCell>
        <mxCell id="nhylXvpkzeiEjoqtLDVl-50" value="&amp;lt;&amp;lt;extend&amp;gt;&amp;gt;" style="edgeLabel;resizable=0;html=1;;align=center;verticalAlign=middle;" parent="nhylXvpkzeiEjoqtLDVl-49" connectable="0" vertex="1">
          <mxGeometry relative="1" as="geometry" />
        </mxCell>
        <mxCell id="nhylXvpkzeiEjoqtLDVl-51" value="Calculate New Stock" style="ellipse;whiteSpace=wrap;html=1;" parent="1" vertex="1">
          <mxGeometry x="658" y="326" width="90" height="60" as="geometry" />
        </mxCell>
        <mxCell id="nhylXvpkzeiEjoqtLDVl-52" value="" style="endArrow=classic;html=1;rounded=0;exitX=0.944;exitY=0.773;exitDx=0;exitDy=0;exitPerimeter=0;" parent="1" source="nhylXvpkzeiEjoqtLDVl-44" target="nhylXvpkzeiEjoqtLDVl-51" edge="1">
          <mxGeometry relative="1" as="geometry">
            <mxPoint x="437" y="339" as="sourcePoint" />
            <mxPoint x="626" y="296" as="targetPoint" />
          </mxGeometry>
        </mxCell>
        <mxCell id="nhylXvpkzeiEjoqtLDVl-53" value="&amp;lt;&amp;lt;include&amp;gt;&amp;gt;" style="edgeLabel;resizable=0;html=1;;align=center;verticalAlign=middle;" parent="nhylXvpkzeiEjoqtLDVl-52" connectable="0" vertex="1">
          <mxGeometry relative="1" as="geometry">
            <mxPoint x="1" as="offset" />
          </mxGeometry>
        </mxCell>
        <mxCell id="nhylXvpkzeiEjoqtLDVl-54" value="Add Shoe to Inventory" style="ellipse;whiteSpace=wrap;html=1;fillColor=#FFF2CC;" parent="1" vertex="1">
          <mxGeometry x="388" y="770" width="90" height="60" as="geometry" />
        </mxCell>
        <mxCell id="nhylXvpkzeiEjoqtLDVl-55" value="Edit Shoe" style="ellipse;whiteSpace=wrap;html=1;fillColor=#FFF2CC;" parent="1" vertex="1">
          <mxGeometry x="388" y="833" width="90" height="60" as="geometry" />
        </mxCell>
        <mxCell id="nhylXvpkzeiEjoqtLDVl-56" value="Delete Shoe" style="ellipse;whiteSpace=wrap;html=1;fillColor=#FFF2CC;" parent="1" vertex="1">
          <mxGeometry x="388" y="899" width="90" height="60" as="geometry" />
        </mxCell>
        <mxCell id="nhylXvpkzeiEjoqtLDVl-57" value="Add Employee" style="ellipse;whiteSpace=wrap;html=1;fillColor=#FFF2CC;" parent="1" vertex="1">
          <mxGeometry x="388" y="965" width="90" height="60" as="geometry" />
        </mxCell>
        <mxCell id="nhylXvpkzeiEjoqtLDVl-58" value="Edit Employee" style="ellipse;whiteSpace=wrap;html=1;fillColor=#FFF2CC;" parent="1" vertex="1">
          <mxGeometry x="388" y="1031" width="90" height="60" as="geometry" />
        </mxCell>
        <mxCell id="nhylXvpkzeiEjoqtLDVl-59" value="Delete Employee" style="ellipse;whiteSpace=wrap;html=1;fillColor=#FFF2CC;" parent="1" vertex="1">
          <mxGeometry x="390" y="1097" width="90" height="60" as="geometry" />
        </mxCell>
        <mxCell id="nhylXvpkzeiEjoqtLDVl-60" value="" style="endArrow=classic;html=1;rounded=0;exitX=1;exitY=0.5;exitDx=0;exitDy=0;entryX=0;entryY=0.5;entryDx=0;entryDy=0;" parent="1" source="nhylXvpkzeiEjoqtLDVl-59" target="nhylXvpkzeiEjoqtLDVl-62" edge="1">
          <mxGeometry relative="1" as="geometry">
            <mxPoint x="480" y="1138" as="sourcePoint" />
            <mxPoint x="650" y="1138" as="targetPoint" />
          </mxGeometry>
        </mxCell>
        <mxCell id="nhylXvpkzeiEjoqtLDVl-61" value="&amp;lt;&amp;lt;extend&amp;gt;&amp;gt;" style="edgeLabel;resizable=0;html=1;;align=center;verticalAlign=middle;" parent="nhylXvpkzeiEjoqtLDVl-60" connectable="0" vertex="1">
          <mxGeometry relative="1" as="geometry" />
        </mxCell>
        <mxCell id="nhylXvpkzeiEjoqtLDVl-62" value="Prevent Self Deletion" style="ellipse;whiteSpace=wrap;html=1;" parent="1" vertex="1">
          <mxGeometry x="650" y="1091" width="90" height="60" as="geometry" />
        </mxCell>
        <mxCell id="nhylXvpkzeiEjoqtLDVl-66" value="" style="endArrow=classic;html=1;rounded=0;" parent="1" edge="1">
          <mxGeometry relative="1" as="geometry">
            <mxPoint x="480" y="929" as="sourcePoint" />
            <mxPoint x="640" y="959" as="targetPoint" />
          </mxGeometry>
        </mxCell>
        <mxCell id="nhylXvpkzeiEjoqtLDVl-67" value="&amp;lt;&amp;lt;extend&amp;gt;&amp;gt;" style="edgeLabel;resizable=0;html=1;;align=center;verticalAlign=middle;" parent="nhylXvpkzeiEjoqtLDVl-66" connectable="0" vertex="1">
          <mxGeometry relative="1" as="geometry" />
        </mxCell>
        <mxCell id="nhylXvpkzeiEjoqtLDVl-68" value="Return to Menu" style="ellipse;whiteSpace=wrap;html=1;" parent="1" vertex="1">
          <mxGeometry x="640" y="939" width="90" height="60" as="geometry" />
        </mxCell>
        <mxCell id="nhylXvpkzeiEjoqtLDVl-69" value="Show Duplicate Shoe Error" style="ellipse;whiteSpace=wrap;html=1;" parent="1" vertex="1">
          <mxGeometry x="640" y="870" width="90" height="60" as="geometry" />
        </mxCell>
        <mxCell id="nhylXvpkzeiEjoqtLDVl-70" value="" style="endArrow=classic;html=1;rounded=0;exitX=1;exitY=0;exitDx=0;exitDy=0;entryX=0.027;entryY=0.337;entryDx=0;entryDy=0;entryPerimeter=0;" parent="1" target="nhylXvpkzeiEjoqtLDVl-69" edge="1">
          <mxGeometry relative="1" as="geometry">
            <mxPoint x="478" y="799" as="sourcePoint" />
            <mxPoint x="653" y="790" as="targetPoint" />
          </mxGeometry>
        </mxCell>
        <mxCell id="nhylXvpkzeiEjoqtLDVl-71" value="&amp;lt;&amp;lt;extend&amp;gt;&amp;gt;" style="edgeLabel;resizable=0;html=1;;align=center;verticalAlign=middle;" parent="nhylXvpkzeiEjoqtLDVl-70" connectable="0" vertex="1">
          <mxGeometry relative="1" as="geometry" />
        </mxCell>
        <mxCell id="nhylXvpkzeiEjoqtLDVl-72" value="" style="endArrow=classic;html=1;rounded=0;exitX=1;exitY=0;exitDx=0;exitDy=0;entryX=0;entryY=0.617;entryDx=0;entryDy=0;entryPerimeter=0;" parent="1" target="nhylXvpkzeiEjoqtLDVl-69" edge="1">
          <mxGeometry relative="1" as="geometry">
            <mxPoint x="478" y="859" as="sourcePoint" />
            <mxPoint x="653" y="850" as="targetPoint" />
          </mxGeometry>
        </mxCell>
        <mxCell id="nhylXvpkzeiEjoqtLDVl-73" value="&amp;lt;&amp;lt;extend&amp;gt;&amp;gt;" style="edgeLabel;resizable=0;html=1;;align=center;verticalAlign=middle;" parent="nhylXvpkzeiEjoqtLDVl-72" connectable="0" vertex="1">
          <mxGeometry relative="1" as="geometry" />
        </mxCell>
        <mxCell id="nhylXvpkzeiEjoqtLDVl-74" value="Confirm Deletion Dialog" style="ellipse;whiteSpace=wrap;html=1;" parent="1" vertex="1">
          <mxGeometry x="640" y="1010" width="90" height="60" as="geometry" />
        </mxCell>
        <mxCell id="nhylXvpkzeiEjoqtLDVl-75" value="" style="endArrow=classic;html=1;rounded=0;exitX=1;exitY=0.5;exitDx=0;exitDy=0;entryX=0;entryY=0;entryDx=0;entryDy=0;" parent="1" source="nhylXvpkzeiEjoqtLDVl-56" target="nhylXvpkzeiEjoqtLDVl-74" edge="1">
          <mxGeometry relative="1" as="geometry">
            <mxPoint x="490" y="939" as="sourcePoint" />
            <mxPoint x="650" y="969" as="targetPoint" />
          </mxGeometry>
        </mxCell>
        <mxCell id="nhylXvpkzeiEjoqtLDVl-76" value="&amp;lt;&amp;lt;extend&amp;gt;&amp;gt;" style="edgeLabel;resizable=0;html=1;;align=center;verticalAlign=middle;" parent="nhylXvpkzeiEjoqtLDVl-75" connectable="0" vertex="1">
          <mxGeometry relative="1" as="geometry" />
        </mxCell>
        <mxCell id="nhylXvpkzeiEjoqtLDVl-77" value="Sales" style="shape=umlActor;verticalLabelPosition=bottom;verticalAlign=top;html=1;outlineConnect=0;fillColor=#EA6B66;" parent="1" vertex="1">
          <mxGeometry x="50" y="500" width="50" height="88" as="geometry" />
        </mxCell>
        <mxCell id="nhylXvpkzeiEjoqtLDVl-78" value="Login&amp;nbsp;" style="ellipse;whiteSpace=wrap;html=1;fillColor=#FFF2CC;" parent="1" vertex="1">
          <mxGeometry x="393" y="626" width="90" height="60" as="geometry" />
        </mxCell>
        <mxCell id="nhylXvpkzeiEjoqtLDVl-80" value="" style="endArrow=classic;html=1;rounded=0;exitX=0.684;exitY=0.02;exitDx=0;exitDy=0;exitPerimeter=0;" parent="1" source="nhylXvpkzeiEjoqtLDVl-78" edge="1">
          <mxGeometry relative="1" as="geometry">
            <mxPoint x="463" y="626" as="sourcePoint" />
            <mxPoint x="563" y="596" as="targetPoint" />
          </mxGeometry>
        </mxCell>
        <mxCell id="nhylXvpkzeiEjoqtLDVl-81" value="&amp;lt;&amp;lt;extend&amp;gt;&amp;gt;" style="edgeLabel;resizable=0;html=1;;align=center;verticalAlign=middle;" parent="nhylXvpkzeiEjoqtLDVl-80" connectable="0" vertex="1">
          <mxGeometry relative="1" as="geometry" />
        </mxCell>
        <mxCell id="nhylXvpkzeiEjoqtLDVl-82" value="Block after 3 Attempts, Exit App" style="ellipse;whiteSpace=wrap;html=1;" parent="1" vertex="1">
          <mxGeometry x="563" y="556" width="90" height="60" as="geometry" />
        </mxCell>
        <mxCell id="nhylXvpkzeiEjoqtLDVl-83" value="" style="endArrow=classic;html=1;rounded=0;exitX=0.684;exitY=0.02;exitDx=0;exitDy=0;exitPerimeter=0;" parent="1" edge="1">
          <mxGeometry relative="1" as="geometry">
            <mxPoint x="483" y="657" as="sourcePoint" />
            <mxPoint x="591" y="656" as="targetPoint" />
          </mxGeometry>
        </mxCell>
        <mxCell id="nhylXvpkzeiEjoqtLDVl-84" value="&amp;lt;&amp;lt;extend&amp;gt;&amp;gt;" style="edgeLabel;resizable=0;html=1;;align=center;verticalAlign=middle;" parent="nhylXvpkzeiEjoqtLDVl-83" connectable="0" vertex="1">
          <mxGeometry relative="1" as="geometry" />
        </mxCell>
        <mxCell id="nhylXvpkzeiEjoqtLDVl-85" value="Error with Attempts Left" style="ellipse;whiteSpace=wrap;html=1;" parent="1" vertex="1">
          <mxGeometry x="593" y="626" width="90" height="60" as="geometry" />
        </mxCell>
        <mxCell id="nhylXvpkzeiEjoqtLDVl-86" value="Validate Credentials" style="ellipse;whiteSpace=wrap;html=1;" parent="1" vertex="1">
          <mxGeometry x="591" y="696" width="90" height="60" as="geometry" />
        </mxCell>
        <mxCell id="nhylXvpkzeiEjoqtLDVl-87" value="" style="endArrow=classic;html=1;rounded=0;exitX=1;exitY=1;exitDx=0;exitDy=0;entryX=0.022;entryY=0.333;entryDx=0;entryDy=0;entryPerimeter=0;" parent="1" edge="1">
          <mxGeometry relative="1" as="geometry">
            <mxPoint x="469.81980515339455" y="677.2132034355964" as="sourcePoint" />
            <mxPoint x="592.98" y="715.98" as="targetPoint" />
          </mxGeometry>
        </mxCell>
        <mxCell id="nhylXvpkzeiEjoqtLDVl-88" value="&amp;lt;&amp;lt;include&amp;gt;&amp;gt;" style="edgeLabel;resizable=0;html=1;;align=center;verticalAlign=middle;" parent="nhylXvpkzeiEjoqtLDVl-87" connectable="0" vertex="1">
          <mxGeometry relative="1" as="geometry">
            <mxPoint x="1" as="offset" />
          </mxGeometry>
        </mxCell>
        <mxCell id="nhylXvpkzeiEjoqtLDVl-89" value="Mask Password Input" style="ellipse;whiteSpace=wrap;html=1;" parent="1" vertex="1">
          <mxGeometry x="533" y="756" width="90" height="60" as="geometry" />
        </mxCell>
        <mxCell id="nhylXvpkzeiEjoqtLDVl-90" value="" style="endArrow=classic;html=1;rounded=0;exitX=1;exitY=1;exitDx=0;exitDy=0;entryX=0;entryY=0;entryDx=0;entryDy=0;" parent="1" target="nhylXvpkzeiEjoqtLDVl-89" edge="1">
          <mxGeometry relative="1" as="geometry">
            <mxPoint x="439.83980515339454" y="686.0032034355963" as="sourcePoint" />
            <mxPoint x="563" y="724.77" as="targetPoint" />
          </mxGeometry>
        </mxCell>
        <mxCell id="nhylXvpkzeiEjoqtLDVl-91" value="&amp;lt;&amp;lt;include&amp;gt;&amp;gt;" style="edgeLabel;resizable=0;html=1;;align=center;verticalAlign=middle;" parent="nhylXvpkzeiEjoqtLDVl-90" connectable="0" vertex="1">
          <mxGeometry relative="1" as="geometry">
            <mxPoint x="1" as="offset" />
          </mxGeometry>
        </mxCell>
        <mxCell id="nhylXvpkzeiEjoqtLDVl-92" value="Manager" style="shape=umlActor;verticalLabelPosition=bottom;verticalAlign=top;html=1;outlineConnect=0;fillColor=#97D077;" parent="1" vertex="1">
          <mxGeometry x="40" y="877" width="50" height="88" as="geometry" />
        </mxCell>
        <mxCell id="nhylXvpkzeiEjoqtLDVl-93" value="Purchase" style="shape=umlActor;verticalLabelPosition=bottom;verticalAlign=top;html=1;outlineConnect=0;fillColor=#FFD966;" parent="1" vertex="1">
          <mxGeometry x="50" y="135" width="50" height="88" as="geometry" />
        </mxCell>
        <mxCell id="nhylXvpkzeiEjoqtLDVl-94" value="Logout" style="ellipse;whiteSpace=wrap;html=1;fillColor=#FFF2CC;" parent="1" vertex="1">
          <mxGeometry x="379" y="482" width="90" height="60" as="geometry" />
        </mxCell>
        <mxCell id="nhylXvpkzeiEjoqtLDVl-95" value="" style="endArrow=classic;html=1;rounded=0;" parent="1" edge="1">
          <mxGeometry relative="1" as="geometry">
            <mxPoint x="469" y="507" as="sourcePoint" />
            <mxPoint x="599" y="507" as="targetPoint" />
          </mxGeometry>
        </mxCell>
        <mxCell id="nhylXvpkzeiEjoqtLDVl-96" value="&amp;lt;&amp;lt;incloude&amp;gt;&amp;gt;" style="edgeLabel;resizable=0;html=1;;align=center;verticalAlign=middle;" parent="nhylXvpkzeiEjoqtLDVl-95" connectable="0" vertex="1">
          <mxGeometry relative="1" as="geometry" />
        </mxCell>
        <mxCell id="nhylXvpkzeiEjoqtLDVl-97" value="Reset Login Attempts" style="ellipse;whiteSpace=wrap;html=1;" parent="1" vertex="1">
          <mxGeometry x="599" y="477" width="90" height="60" as="geometry" />
        </mxCell>
        <mxCell id="nhylXvpkzeiEjoqtLDVl-98" value="" style="endArrow=none;html=1;rounded=0;entryX=1;entryY=0.3333333333333333;entryDx=0;entryDy=0;entryPerimeter=0;exitX=-0.016;exitY=0.633;exitDx=0;exitDy=0;exitPerimeter=0;strokeColor=#EA6B66;" parent="1" source="nhylXvpkzeiEjoqtLDVl-94" target="nhylXvpkzeiEjoqtLDVl-77" edge="1">
          <mxGeometry width="50" height="50" relative="1" as="geometry">
            <mxPoint x="450" y="480" as="sourcePoint" />
            <mxPoint x="500" y="430" as="targetPoint" />
          </mxGeometry>
        </mxCell>
        <mxCell id="nhylXvpkzeiEjoqtLDVl-101" value="" style="endArrow=none;html=1;rounded=0;exitX=0;exitY=0;exitDx=0;exitDy=0;strokeColor=#EA6B66;" parent="1" source="nhylXvpkzeiEjoqtLDVl-78" edge="1">
          <mxGeometry width="50" height="50" relative="1" as="geometry">
            <mxPoint x="388" y="476" as="sourcePoint" />
            <mxPoint x="100" y="530" as="targetPoint" />
          </mxGeometry>
        </mxCell>
        <mxCell id="nhylXvpkzeiEjoqtLDVl-102" value="" style="endArrow=none;html=1;rounded=0;exitX=1;exitY=0.3333333333333333;exitDx=0;exitDy=0;exitPerimeter=0;entryX=0.02;entryY=0.647;entryDx=0;entryDy=0;entryPerimeter=0;fillColor=#97D077;strokeColor=#97D077;" parent="1" source="nhylXvpkzeiEjoqtLDVl-92" target="nhylXvpkzeiEjoqtLDVl-94" edge="1">
          <mxGeometry width="50" height="50" relative="1" as="geometry">
            <mxPoint x="90" y="900" as="sourcePoint" />
            <mxPoint x="140" y="850" as="targetPoint" />
          </mxGeometry>
        </mxCell>
        <mxCell id="nhylXvpkzeiEjoqtLDVl-103" value="" style="endArrow=none;html=1;rounded=0;exitX=1;exitY=0.3333333333333333;exitDx=0;exitDy=0;exitPerimeter=0;entryX=0;entryY=0.5;entryDx=0;entryDy=0;fillColor=#97D077;strokeColor=#97D077;" parent="1" source="nhylXvpkzeiEjoqtLDVl-92" target="nhylXvpkzeiEjoqtLDVl-78" edge="1">
          <mxGeometry width="50" height="50" relative="1" as="geometry">
            <mxPoint x="450" y="680" as="sourcePoint" />
            <mxPoint x="500" y="630" as="targetPoint" />
          </mxGeometry>
        </mxCell>
        <mxCell id="U0UyPBzVPxHmzF8zyYeO-1" value="" style="endArrow=none;html=1;rounded=0;entryX=-0.033;entryY=0.7;entryDx=0;entryDy=0;entryPerimeter=0;exitX=1;exitY=0.3333333333333333;exitDx=0;exitDy=0;exitPerimeter=0;strokeColor=#FFD966;" edge="1" parent="1" source="nhylXvpkzeiEjoqtLDVl-93" target="nhylXvpkzeiEjoqtLDVl-33">
          <mxGeometry width="50" height="50" relative="1" as="geometry">
            <mxPoint x="160" y="220" as="sourcePoint" />
            <mxPoint x="210" y="170" as="targetPoint" />
          </mxGeometry>
        </mxCell>
        <mxCell id="U0UyPBzVPxHmzF8zyYeO-2" value="" style="endArrow=none;html=1;rounded=0;entryX=0;entryY=0.5;entryDx=0;entryDy=0;exitX=1;exitY=0.3333333333333333;exitDx=0;exitDy=0;exitPerimeter=0;strokeColor=#FFD966;" edge="1" parent="1" source="nhylXvpkzeiEjoqtLDVl-93" target="nhylXvpkzeiEjoqtLDVl-40">
          <mxGeometry width="50" height="50" relative="1" as="geometry">
            <mxPoint x="100" y="290" as="sourcePoint" />
            <mxPoint x="150" y="240" as="targetPoint" />
          </mxGeometry>
        </mxCell>
        <mxCell id="U0UyPBzVPxHmzF8zyYeO-3" value="" style="endArrow=none;html=1;rounded=0;entryX=0.233;entryY=0.033;entryDx=0;entryDy=0;entryPerimeter=0;exitX=1;exitY=0.3333333333333333;exitDx=0;exitDy=0;exitPerimeter=0;fillColor=#FFD966;strokeColor=#FFD966;" edge="1" parent="1" source="nhylXvpkzeiEjoqtLDVl-93" target="nhylXvpkzeiEjoqtLDVl-94">
          <mxGeometry width="50" height="50" relative="1" as="geometry">
            <mxPoint x="110" y="160" as="sourcePoint" />
            <mxPoint x="230" y="270" as="targetPoint" />
          </mxGeometry>
        </mxCell>
        <mxCell id="U0UyPBzVPxHmzF8zyYeO-4" value="" style="endArrow=none;html=1;rounded=0;fillColor=#FFD966;strokeColor=#FFD966;" edge="1" parent="1" target="nhylXvpkzeiEjoqtLDVl-78">
          <mxGeometry width="50" height="50" relative="1" as="geometry">
            <mxPoint x="100" y="160" as="sourcePoint" />
            <mxPoint x="120" y="340" as="targetPoint" />
          </mxGeometry>
        </mxCell>
        <mxCell id="U0UyPBzVPxHmzF8zyYeO-5" value="" style="endArrow=none;html=1;rounded=0;entryX=0.078;entryY=0.777;entryDx=0;entryDy=0;entryPerimeter=0;strokeColor=#EA6B66;" edge="1" parent="1" target="nhylXvpkzeiEjoqtLDVl-44">
          <mxGeometry width="50" height="50" relative="1" as="geometry">
            <mxPoint x="100" y="530" as="sourcePoint" />
            <mxPoint x="200" y="430" as="targetPoint" />
          </mxGeometry>
        </mxCell>
        <mxCell id="U0UyPBzVPxHmzF8zyYeO-6" value="" style="endArrow=none;html=1;rounded=0;entryX=0;entryY=0.5;entryDx=0;entryDy=0;exitX=1;exitY=0.3333333333333333;exitDx=0;exitDy=0;exitPerimeter=0;strokeColor=#97D077;" edge="1" parent="1" source="nhylXvpkzeiEjoqtLDVl-92" target="nhylXvpkzeiEjoqtLDVl-54">
          <mxGeometry width="50" height="50" relative="1" as="geometry">
            <mxPoint x="170" y="930" as="sourcePoint" />
            <mxPoint x="220" y="880" as="targetPoint" />
          </mxGeometry>
        </mxCell>
        <mxCell id="U0UyPBzVPxHmzF8zyYeO-7" value="" style="endArrow=none;html=1;rounded=0;entryX=0;entryY=0.5;entryDx=0;entryDy=0;fillColor=#97D077;strokeColor=#97D077;" edge="1" parent="1" target="nhylXvpkzeiEjoqtLDVl-55">
          <mxGeometry width="50" height="50" relative="1" as="geometry">
            <mxPoint x="90" y="910" as="sourcePoint" />
            <mxPoint x="396" y="619" as="targetPoint" />
          </mxGeometry>
        </mxCell>
        <mxCell id="U0UyPBzVPxHmzF8zyYeO-8" value="" style="endArrow=none;html=1;rounded=0;entryX=0;entryY=0.5;entryDx=0;entryDy=0;fillColor=#97D077;strokeColor=#97D077;" edge="1" parent="1" target="nhylXvpkzeiEjoqtLDVl-56">
          <mxGeometry width="50" height="50" relative="1" as="geometry">
            <mxPoint x="90" y="910" as="sourcePoint" />
            <mxPoint x="406" y="629" as="targetPoint" />
          </mxGeometry>
        </mxCell>
        <mxCell id="U0UyPBzVPxHmzF8zyYeO-9" value="" style="endArrow=none;html=1;rounded=0;entryX=0;entryY=0.5;entryDx=0;entryDy=0;fillColor=#97D077;strokeColor=#97D077;" edge="1" parent="1" target="nhylXvpkzeiEjoqtLDVl-57">
          <mxGeometry width="50" height="50" relative="1" as="geometry">
            <mxPoint x="90" y="910" as="sourcePoint" />
            <mxPoint x="416" y="639" as="targetPoint" />
          </mxGeometry>
        </mxCell>
        <mxCell id="U0UyPBzVPxHmzF8zyYeO-10" value="" style="endArrow=none;html=1;rounded=0;entryX=0;entryY=0;entryDx=0;entryDy=0;fillColor=#97D077;strokeColor=#97D077;exitX=1;exitY=0.3333333333333333;exitDx=0;exitDy=0;exitPerimeter=0;" edge="1" parent="1" source="nhylXvpkzeiEjoqtLDVl-92" target="nhylXvpkzeiEjoqtLDVl-58">
          <mxGeometry width="50" height="50" relative="1" as="geometry">
            <mxPoint x="100" y="920" as="sourcePoint" />
            <mxPoint x="398" y="1005" as="targetPoint" />
          </mxGeometry>
        </mxCell>
        <mxCell id="U0UyPBzVPxHmzF8zyYeO-11" value="" style="endArrow=none;html=1;rounded=0;entryX=0;entryY=0.5;entryDx=0;entryDy=0;fillColor=#97D077;strokeColor=#97D077;" edge="1" parent="1" target="nhylXvpkzeiEjoqtLDVl-59">
          <mxGeometry width="50" height="50" relative="1" as="geometry">
            <mxPoint x="90" y="910" as="sourcePoint" />
            <mxPoint x="408" y="1015" as="targetPoint" />
          </mxGeometry>
        </mxCell>
        <mxCell id="U0UyPBzVPxHmzF8zyYeO-12" value="" style="endArrow=none;html=1;rounded=0;entryX=0;entryY=0.5;entryDx=0;entryDy=0;strokeColor=#EA6B66;" edge="1" parent="1" target="nhylXvpkzeiEjoqtLDVl-40">
          <mxGeometry width="50" height="50" relative="1" as="geometry">
            <mxPoint x="100" y="530" as="sourcePoint" />
            <mxPoint x="240" y="490" as="targetPoint" />
          </mxGeometry>
        </mxCell>
        <mxCell id="U0UyPBzVPxHmzF8zyYeO-13" value="" style="endArrow=none;html=1;rounded=0;entryX=0;entryY=0.5;entryDx=0;entryDy=0;fillColor=#97D077;strokeColor=#97D077;" edge="1" parent="1" target="nhylXvpkzeiEjoqtLDVl-40">
          <mxGeometry width="50" height="50" relative="1" as="geometry">
            <mxPoint x="90" y="910" as="sourcePoint" />
            <mxPoint x="391" y="531" as="targetPoint" />
          </mxGeometry>
        </mxCell>
      </root>
    </mxGraphModel>
  </diagram>
</mxfile>
